<svg version="1.1" id="Layer_1" xmlns="http://www.w3.org/2000/svg" xmlns:xlink="http://www.w3.org/1999/xlink" x="0px" y="0px"
	 width="100%" viewBox="0 0 3080 3080" enable-background="new 0 0 3080 3080" xml:space="preserve">
<path fill="#0B6BCB" opacity="1.000000" stroke="none" 
	d="
M3082.000000,1352.000000 
	C3082.000000,1364.708862 3082.000000,1377.417603 3081.525146,1391.732910 
	C3081.004883,1412.202148 3076.546387,1430.193481 3070.103271,1447.753906 
	C3065.413574,1460.535767 3060.600098,1473.276001 3055.601562,1485.940063 
	C3041.877197,1520.712280 3024.164551,1553.421387 3003.958008,1584.810669 
	C2982.858643,1617.586914 2959.448242,1648.648071 2933.552734,1677.769043 
	C2917.422119,1695.909058 2901.265869,1714.101929 2884.016357,1731.153442 
	C2856.822266,1758.035400 2828.614990,1783.835327 2798.883057,1808.005859 
	C2773.805420,1828.392822 2747.942627,1847.678467 2720.799805,1865.053101 
	C2690.007568,1884.764038 2658.277100,1903.022339 2626.772217,1921.603394 
	C2598.907471,1938.037598 2569.442383,1951.123535 2539.048340,1962.140625 
	C2527.557861,1966.305664 2516.053711,1970.432983 2504.321533,1974.661865 
	C2504.321533,1979.033203 2504.321533,1982.679932 2504.321533,1986.326660 
	C2504.321533,2084.979980 2504.335938,2183.633057 2504.281738,2282.286377 
	C2504.278809,2287.599121 2504.312988,2293.030762 2503.301514,2298.206055 
	C2491.147217,2360.394043 2438.041504,2392.813477 2389.489014,2392.580078 
	C2332.898926,2392.307861 2277.093018,2347.101807 2275.743164,2279.556885 
	C2275.338135,2259.289551 2275.684570,2239.007080 2275.684082,2218.731689 
	C2275.682617,2157.077637 2275.688232,2095.423340 2275.648193,2033.769165 
	C2275.646484,2031.242554 2275.212158,2028.716064 2274.879395,2025.104126 
	C2154.060791,2042.396362 2037.120361,2022.382446 1920.694214,1993.959229 
	C1920.527222,1996.192749 1920.346069,1997.506836 1920.342773,1998.821533 
	C1920.200195,2055.231445 1875.053467,2103.734131 1818.402710,2109.679688 
	C1750.211304,2116.836914 1691.734009,2064.087158 1691.683716,1995.476074 
	C1691.654663,1955.814819 1691.481079,1916.151733 1691.860229,1876.494019 
	C1691.928345,1869.362549 1689.863892,1864.700195 1684.086060,1860.772461 
	C1678.052734,1856.671265 1672.461304,1851.897583 1666.825073,1847.238403 
	C1634.451172,1820.476440 1604.212158,1791.497437 1576.395874,1760.004272 
	C1567.811035,1750.284546 1559.175537,1740.607300 1550.432617,1731.029785 
	C1542.379761,1722.208374 1533.689575,1713.929932 1526.078857,1704.750366 
	C1486.804565,1657.380981 1447.353027,1610.188599 1403.974243,1566.439087 
	C1393.437134,1555.812500 1383.542358,1544.552002 1373.156860,1533.770996 
	C1364.644775,1524.934692 1355.906738,1516.312256 1347.132568,1507.734497 
	C1344.218994,1504.885986 1341.859619,1501.156616 1336.692749,1499.477661 
	C1336.692749,1659.853516 1336.692749,1819.321045 1336.692749,1978.141235 
	C1355.233276,1991.561279 1373.630615,2004.195679 1391.243042,2017.843018 
	C1405.144775,2028.615479 1418.336914,2040.352417 1431.364624,2052.188965 
	C1441.694458,2061.574463 1451.073608,2071.998779 1461.270020,2081.539795 
	C1481.664551,2100.623779 1502.697632,2119.038818 1522.751099,2138.468750 
	C1535.626953,2150.944580 1547.124756,2164.833496 1559.416382,2177.923340 
	C1586.519653,2206.787598 1613.777954,2235.506592 1640.884155,2264.367920 
	C1653.176880,2277.456787 1665.352783,2290.658936 1677.386719,2303.985840 
	C1681.895508,2308.978760 1685.851074,2314.471191 1691.584717,2321.645264 
	C1691.915283,2315.837646 1692.222900,2312.338867 1692.288452,2308.835449 
	C1692.387817,2303.530273 1692.001709,2298.199463 1692.374268,2292.918701 
	C1694.403442,2264.157959 1705.765015,2239.259521 1726.426514,2219.526123 
	C1751.928467,2195.169922 1782.610840,2184.470459 1818.341187,2187.520264 
	C1870.684937,2191.988525 1916.479004,2237.337158 1920.259766,2289.935547 
	C1920.800171,2297.453125 1920.447266,2305.031250 1920.649536,2312.577637 
	C1920.904175,2322.083252 1921.545288,2331.584473 1921.570312,2341.088867 
	C1921.592651,2349.591553 1920.699585,2358.098145 1920.752808,2366.599365 
	C1920.851685,2382.411133 1921.552612,2398.219482 1921.630493,2414.031006 
	C1921.785767,2445.612061 1921.682861,2477.194336 1921.720337,2508.776123 
	C1921.721924,2510.076904 1922.064453,2511.376953 1922.337280,2513.309570 
	C1936.267456,2521.324463 1950.559814,2529.138184 1964.418213,2537.658203 
	C1974.501831,2543.857666 1985.201904,2548.096924 1996.727417,2550.168945 
	C2027.414551,2555.685791 2058.040527,2561.688232 2088.889893,2566.109619 
	C2113.805420,2569.680420 2138.965576,2572.137939 2164.101807,2573.382568 
	C2183.301025,2574.333252 2202.697266,2573.417236 2221.889404,2571.880127 
	C2246.339600,2569.921631 2270.817383,2567.391113 2295.018311,2563.472900 
	C2322.838623,2558.968750 2350.693115,2553.921875 2377.941895,2546.838135 
	C2409.906006,2538.529053 2439.272461,2523.034912 2468.531006,2508.075439 
	C2494.256348,2494.922852 2519.025391,2479.864990 2543.970947,2465.229492 
	C2588.646240,2439.018311 2629.121826,2407.020508 2667.031006,2372.011475 
	C2700.560059,2341.047607 2730.922119,2306.881104 2756.832764,2269.199707 
	C2778.887451,2237.125977 2797.303711,2203.719482 2805.307617,2164.314697 
	C2819.688965,2093.514160 2883.918701,2042.355347 2966.466797,2054.801025 
	C3017.543213,2062.501953 3053.353027,2092.880615 3073.773193,2140.497070 
	C3077.520020,2149.234131 3079.307861,2158.811035 3082.000000,2168.000000 
	C3082.000000,2185.375244 3082.000000,2202.750244 3081.378662,2221.548828 
	C3080.588379,2226.687256 3080.419434,2230.402100 3080.142090,2234.937988 
	C3079.572754,2238.699707 3079.535889,2241.785889 3078.583984,2244.557861 
	C3071.252197,2265.907471 3063.912842,2287.257568 3056.246338,2308.488281 
	C3046.949951,2334.231934 3033.945557,2358.274902 3020.365479,2381.878906 
	C3003.769531,2410.723389 2984.403076,2437.765869 2964.035156,2464.147949 
	C2939.990479,2495.292480 2913.185791,2523.928223 2886.024414,2552.223877 
	C2870.842041,2568.040527 2854.292725,2582.569580 2838.048340,2597.336914 
	C2806.270020,2626.224854 2772.855225,2653.104980 2736.933594,2676.687256 
	C2711.077148,2693.662109 2685.223145,2710.737793 2658.485107,2726.245605 
	C2632.344238,2741.406982 2605.459473,2755.419678 2578.213379,2768.504150 
	C2548.810791,2782.624023 2517.657471,2792.454834 2486.577881,2802.308838 
	C2448.524414,2814.373779 2409.982422,2824.609131 2370.775879,2831.994385 
	C2339.487061,2837.888428 2308.027832,2843.072754 2276.474121,2847.303711 
	C2252.828125,2850.474365 2228.947266,2852.509033 2205.107422,2853.470947 
	C2169.540283,2854.905762 2134.082520,2852.417236 2098.661133,2848.519043 
	C2059.014648,2844.155762 2019.737061,2837.831787 1980.729614,2829.688232 
	C1953.393799,2823.981201 1926.018433,2818.259521 1900.492188,2806.371582 
	C1874.561157,2794.295166 1848.530273,2782.401367 1822.939941,2769.632324 
	C1763.435913,2739.940918 1708.174683,2703.721191 1657.519897,2660.541504 
	C1632.666870,2639.355957 1609.029053,2616.931641 1587.178345,2592.649170 
	C1575.836548,2580.044922 1565.339966,2566.557617 1553.056396,2554.957031 
	C1539.913208,2542.544922 1528.877930,2528.498535 1517.221313,2514.878662 
	C1491.716064,2485.077148 1466.184814,2455.292480 1440.247681,2425.868164 
	C1426.393311,2410.151367 1411.660767,2395.208984 1397.347534,2379.895752 
	C1386.223511,2367.994385 1375.531250,2355.656982 1363.927124,2344.245850 
	C1350.417358,2330.960693 1336.380981,2318.177734 1322.098267,2305.721436 
	C1307.336548,2292.847900 1292.935669,2279.222168 1276.693726,2268.467529 
	C1254.908325,2254.042236 1234.032227,2238.061768 1208.869141,2228.768066 
	C1189.016968,2221.436035 1170.523438,2210.479980 1151.244995,2201.523926 
	C1131.950439,2192.559814 1112.459106,2184.161377 1091.460449,2179.611572 
	C1060.944458,2172.999023 1030.359497,2166.903076 999.280762,2163.644287 
	C974.883362,2161.086426 950.507751,2157.784424 926.036804,2156.633301 
	C906.168640,2155.698242 886.069824,2156.386719 866.258179,2158.285400 
	C834.914612,2161.289062 803.696228,2165.687256 772.478394,2169.892822 
	C727.966797,2175.889893 685.805176,2189.465332 645.551453,2209.401611 
	C611.550049,2226.241211 578.267761,2244.257324 545.828003,2263.993408 
	C494.951477,2294.945801 448.965515,2331.991455 406.350098,2373.331299 
	C393.958435,2385.351807 382.608856,2398.481445 371.181976,2411.455078 
	C342.275177,2444.274658 316.221497,2479.111572 298.240875,2519.291504 
	C293.525665,2529.828369 288.203003,2540.723145 286.659943,2551.935303 
	C281.408539,2590.092529 264.347473,2621.247314 235.025070,2645.785645 
	C202.250824,2673.212646 163.603165,2681.533936 122.606857,2675.264893 
	C75.862839,2668.116699 41.617439,2641.434814 19.703320,2599.549805 
	C10.019226,2581.040039 5.068947,2561.284912 5.502042,2540.044678 
	C5.930151,2519.049072 5.666622,2497.936523 12.362563,2477.870361 
	C20.349163,2453.936523 28.820265,2430.076416 38.780556,2406.915039 
	C47.431541,2386.798584 57.670238,2367.250732 68.603973,2348.255859 
	C85.375107,2319.119873 104.109612,2291.163574 125.717682,2265.337158 
	C145.333954,2241.892090 165.012802,2218.446777 185.772018,2196.027344 
	C202.930389,2177.496826 221.413498,2160.152832 239.830276,2142.836670 
	C272.816986,2111.820801 307.977875,2083.425781 345.245758,2057.682373 
	C387.445740,2028.532471 431.154846,2001.852051 476.588135,1978.040527 
	C481.502319,1975.465088 483.895477,1972.663818 483.838470,1966.584106 
	C483.304504,1909.621460 483.151489,1852.655273 482.894592,1795.690063 
	C482.862061,1788.474976 482.758850,1781.257812 482.879333,1774.044922 
	C483.027191,1765.191895 483.503540,1756.343750 483.606354,1747.490845 
	C483.743073,1735.718506 483.151733,1723.917236 483.767120,1712.175293 
	C485.203674,1684.766113 496.155060,1661.275757 515.346191,1641.903198 
	C544.959473,1612.010010 580.843933,1601.657959 621.946411,1609.773682 
	C645.180725,1614.361206 664.513123,1626.065186 680.839844,1643.248535 
	C699.495056,1662.882568 710.264160,1686.112305 711.453552,1712.930664 
	C712.702637,1741.094727 712.184326,1769.340820 712.286560,1797.551514 
	C712.387573,1825.445190 712.298584,1853.339355 712.293396,1881.233398 
	C712.292358,1886.740112 712.293213,1892.246826 712.293213,1898.720337 
	C720.426208,1897.266357 727.251404,1896.132446 734.041565,1894.818237 
	C782.978271,1885.346802 832.385864,1879.247559 882.102417,1876.600708 
	C910.943665,1875.065186 939.860962,1876.657104 968.750122,1879.373535 
	C1007.790100,1883.044434 1046.523682,1888.366089 1085.017578,1895.677246 
	C1092.314331,1897.062988 1099.636108,1898.316040 1107.013428,1899.642334 
	C1107.013428,1720.009399 1107.013428,1541.495361 1107.013428,1362.093262 
	C1102.005859,1360.708130 1097.009644,1358.943359 1091.864014,1357.966553 
	C1064.158325,1352.708008 1036.547485,1346.708496 1008.648376,1342.777588 
	C980.758301,1338.847778 952.615845,1336.153076 924.491211,1334.634888 
	C904.972778,1333.581543 885.234497,1334.644531 865.707947,1336.193481 
	C841.254517,1338.133057 816.774475,1340.651489 792.567627,1344.546265 
	C765.066162,1348.971069 737.521851,1353.922729 710.601501,1360.960815 
	C678.325867,1369.398804 648.644165,1384.993530 619.096741,1400.133789 
	C593.676575,1413.159302 569.161438,1427.990723 544.523315,1442.494507 
	C493.779419,1472.366089 448.434387,1509.319580 406.489716,1550.389282 
	C389.888153,1566.644531 374.719635,1584.422119 359.540894,1602.059204 
	C332.277313,1633.738770 309.114990,1668.156982 292.907806,1706.884644 
	C289.860352,1714.166626 286.890289,1721.798462 285.819336,1729.536499 
	C280.565704,1767.497070 263.765137,1799.023560 234.423782,1823.585815 
	C201.706329,1850.974243 163.049271,1859.658447 122.067177,1853.265747 
	C71.372559,1845.357910 35.472130,1815.950684 14.860418,1768.888916 
	C9.997114,1757.784912 7.681598,1745.565186 4.286187,1732.935547 
	C4.317123,1719.389160 4.255897,1706.765991 4.712825,1693.503174 
	C5.709904,1670.224854 12.662733,1649.016968 20.325760,1628.120728 
	C30.625956,1600.032959 41.838028,1572.250854 56.730789,1546.214111 
	C68.285347,1526.013428 79.876289,1505.761597 92.793060,1486.429199 
	C111.454369,1458.499268 131.791885,1431.684448 154.629944,1407.005127 
	C178.112717,1381.629028 201.724991,1356.289185 226.635147,1332.342529 
	C248.894104,1310.944458 272.190430,1290.432129 296.509033,1271.422485 
	C322.933319,1250.766724 350.403168,1231.263794 378.631226,1213.150146 
	C409.672424,1193.231323 441.987457,1175.277222 474.016693,1156.937134 
	C479.934540,1153.548584 482.599854,1150.279785 482.507782,1143.156494 
	C482.085571,1110.498413 482.131592,1077.830444 482.376953,1045.168701 
	C482.611603,1013.928528 494.676483,987.211853 516.946594,965.946350 
	C545.775024,938.418396 580.612000,928.222168 619.925720,936.152100 
	C672.097290,946.675781 711.056763,991.861023 711.659485,1050.235229 
	C711.746948,1058.703613 711.671631,1067.173462 711.671631,1075.856079 
	C714.081970,1075.856079 715.726807,1076.074707 717.296509,1075.823730 
	C748.090820,1070.899292 778.774902,1065.121216 809.694519,1061.195190 
	C836.320312,1057.814331 863.177063,1055.784790 889.995911,1054.511353 
	C923.574463,1052.917114 957.116882,1055.222046 990.404724,1059.785889 
	C1024.251099,1064.426270 1058.106079,1069.222900 1091.725708,1075.244141 
	C1135.925293,1083.160156 1179.332886,1094.679443 1221.873169,1109.004517 
	C1249.567871,1118.330444 1276.988525,1128.669312 1303.915161,1140.018066 
	C1329.484619,1150.794800 1352.202881,1166.857056 1374.140137,1183.682983 
	C1392.853149,1198.036011 1411.273315,1212.872070 1428.837646,1228.595215 
	C1449.627441,1247.205566 1469.347656,1267.010010 1489.555908,1286.271240 
	C1503.768677,1299.818115 1518.613647,1312.758789 1532.137695,1326.959229 
	C1563.105713,1359.475952 1593.449951,1392.586914 1624.021118,1425.481201 
	C1636.472778,1438.879028 1648.900879,1452.299561 1661.255737,1465.786621 
	C1670.836426,1476.245605 1680.286743,1486.823975 1690.694702,1498.345215 
	C1690.944214,1494.362183 1691.385010,1490.913818 1691.331909,1487.473389 
	C1691.195190,1478.644043 1690.609497,1469.817505 1690.637085,1460.991211 
	C1690.663574,1452.488159 1692.648193,1443.735474 1691.195190,1435.550049 
	C1689.492310,1425.957275 1691.088745,1416.842163 1692.619751,1407.904663 
	C1702.964722,1347.514038 1758.463013,1306.571655 1817.315430,1313.684814 
	C1863.897461,1319.315063 1895.378906,1344.675049 1913.028809,1387.756226 
	C1920.934082,1407.052368 1920.078125,1427.463379 1920.169312,1447.688110 
	C1920.265137,1468.923462 1919.774048,1490.160767 1919.790405,1511.397095 
	C1919.806885,1532.972900 1920.238403,1554.548218 1920.293945,1576.124268 
	C1920.385498,1611.731079 1920.468384,1647.339478 1920.175659,1682.944092 
	C1920.127075,1688.848145 1922.268066,1692.016968 1927.172485,1694.729248 
	C1939.979004,1701.811401 1952.712769,1709.053711 1965.172974,1716.723755 
	C1974.694458,1722.584717 1984.953369,1726.118164 1995.777344,1728.169678 
	C2023.158813,1733.359375 2050.442139,1739.307983 2078.012695,1743.191650 
	C2105.903076,1747.120483 2134.041992,1749.865112 2162.166016,1751.358276 
	C2182.016357,1752.411987 2202.125732,1751.576538 2221.937744,1749.683960 
	C2252.949951,1746.721680 2283.829346,1742.307373 2314.727783,1738.227173 
	C2360.287354,1732.210815 2403.577148,1718.608032 2444.348633,1697.508667 
	C2474.162109,1682.080200 2504.006592,1666.580200 2532.850342,1649.450928 
	C2556.836670,1635.206177 2580.042969,1619.423340 2602.419434,1602.744873 
	C2636.837402,1577.091431 2669.364258,1549.179443 2698.386963,1517.274170 
	C2725.305176,1487.682251 2751.418945,1457.470703 2771.659424,1422.878174 
	C2785.352783,1399.474731 2797.970215,1375.718994 2802.875488,1348.043091 
	C2815.832520,1274.937866 2880.486328,1219.555664 2965.547607,1232.902954 
	C3022.690430,1241.869385 3060.092773,1277.320679 3077.769043,1332.719116 
	C3079.760498,1338.960693 3080.617188,1345.564209 3082.000000,1352.000000 
z"/>
<path fill="#FFFFFF" opacity="1.000000" stroke="none" 
	d="
M4.194024,1733.858643 
	C7.681598,1745.565186 9.997114,1757.784912 14.860418,1768.888916 
	C35.472130,1815.950684 71.372559,1845.357910 122.067177,1853.265747 
	C163.049271,1859.658447 201.706329,1850.974243 234.423782,1823.585815 
	C263.765137,1799.023560 280.565704,1767.497070 285.819336,1729.536499 
	C286.890289,1721.798462 289.860352,1714.166626 292.907806,1706.884644 
	C309.114990,1668.156982 332.277313,1633.738770 359.540894,1602.059204 
	C374.719635,1584.422119 389.888153,1566.644531 406.489716,1550.389282 
	C448.434387,1509.319580 493.779419,1472.366089 544.523315,1442.494507 
	C569.161438,1427.990723 593.676575,1413.159302 619.096741,1400.133789 
	C648.644165,1384.993530 678.325867,1369.398804 710.601501,1360.960815 
	C737.521851,1353.922729 765.066162,1348.971069 792.567627,1344.546265 
	C816.774475,1340.651489 841.254517,1338.133057 865.707947,1336.193481 
	C885.234497,1334.644531 904.972778,1333.581543 924.491211,1334.634888 
	C952.615845,1336.153076 980.758301,1338.847778 1008.648376,1342.777588 
	C1036.547485,1346.708496 1064.158325,1352.708008 1091.864014,1357.966553 
	C1097.009644,1358.943359 1102.005859,1360.708130 1107.013428,1362.093262 
	C1107.013428,1541.495361 1107.013428,1720.009399 1107.013428,1899.642334 
	C1099.636108,1898.316040 1092.314331,1897.062988 1085.017578,1895.677246 
	C1046.523682,1888.366089 1007.790100,1883.044434 968.750122,1879.373535 
	C939.860962,1876.657104 910.943665,1875.065186 882.102417,1876.600708 
	C832.385864,1879.247559 782.978271,1885.346802 734.041565,1894.818237 
	C727.251404,1896.132446 720.426208,1897.266357 712.293213,1898.720337 
	C712.293213,1892.246826 712.292358,1886.740112 712.293396,1881.233398 
	C712.298584,1853.339355 712.387573,1825.445190 712.286560,1797.551514 
	C712.184326,1769.340820 712.702637,1741.094727 711.453552,1712.930664 
	C710.264160,1686.112305 699.495056,1662.882568 680.839844,1643.248535 
	C664.513123,1626.065186 645.180725,1614.361206 621.946411,1609.773682 
	C580.843933,1601.657959 544.959473,1612.010010 515.346191,1641.903198 
	C496.155060,1661.275757 485.203674,1684.766113 483.767120,1712.175293 
	C483.151733,1723.917236 483.743073,1735.718506 483.606354,1747.490845 
	C483.503540,1756.343750 483.027191,1765.191895 482.879333,1774.044922 
	C482.758850,1781.257812 482.862061,1788.474976 482.894592,1795.690063 
	C483.151489,1852.655273 483.304504,1909.621460 483.838470,1966.584106 
	C483.895477,1972.663818 481.502319,1975.465088 476.588135,1978.040527 
	C431.154846,2001.852051 387.445740,2028.532471 345.245758,2057.682373 
	C307.977875,2083.425781 272.816986,2111.820801 239.830276,2142.836670 
	C221.413498,2160.152832 202.930389,2177.496826 185.772018,2196.027344 
	C165.012802,2218.446777 145.333954,2241.892090 125.717682,2265.337158 
	C104.109612,2291.163574 85.375107,2319.119873 68.603973,2348.255859 
	C57.670238,2367.250732 47.431541,2386.798584 38.780556,2406.915039 
	C28.820265,2430.076416 20.349163,2453.936523 12.362563,2477.870361 
	C5.666622,2497.936523 5.930151,2519.049072 5.502042,2540.044678 
	C5.068947,2561.284912 10.019226,2581.040039 19.703320,2599.549805 
	C41.617439,2641.434814 75.862839,2668.116699 122.606857,2675.264893 
	C163.603165,2681.533936 202.250824,2673.212646 235.025070,2645.785645 
	C264.347473,2621.247314 281.408539,2590.092529 286.659943,2551.935303 
	C288.203003,2540.723145 293.525665,2529.828369 298.240875,2519.291504 
	C316.221497,2479.111572 342.275177,2444.274658 371.181976,2411.455078 
	C382.608856,2398.481445 393.958435,2385.351807 406.350098,2373.331299 
	C448.965515,2331.991455 494.951477,2294.945801 545.828003,2263.993408 
	C578.267761,2244.257324 611.550049,2226.241211 645.551453,2209.401611 
	C685.805176,2189.465332 727.966797,2175.889893 772.478394,2169.892822 
	C803.696228,2165.687256 834.914612,2161.289062 866.258179,2158.285400 
	C886.069824,2156.386719 906.168640,2155.698242 926.036804,2156.633301 
	C950.507751,2157.784424 974.883362,2161.086426 999.280762,2163.644287 
	C1030.359497,2166.903076 1060.944458,2172.999023 1091.460449,2179.611572 
	C1112.459106,2184.161377 1131.950439,2192.559814 1151.244995,2201.523926 
	C1170.523438,2210.479980 1189.016968,2221.436035 1208.869141,2228.768066 
	C1234.032227,2238.061768 1254.908325,2254.042236 1276.693726,2268.467529 
	C1292.935669,2279.222168 1307.336548,2292.847900 1322.098267,2305.721436 
	C1336.380981,2318.177734 1350.417358,2330.960693 1363.927124,2344.245850 
	C1375.531250,2355.656982 1386.223511,2367.994385 1397.347534,2379.895752 
	C1411.660767,2395.208984 1426.393311,2410.151367 1440.247681,2425.868164 
	C1466.184814,2455.292480 1491.716064,2485.077148 1517.221313,2514.878662 
	C1528.877930,2528.498535 1539.913208,2542.544922 1553.056396,2554.957031 
	C1565.339966,2566.557617 1575.836548,2580.044922 1587.178345,2592.649170 
	C1609.029053,2616.931641 1632.666870,2639.355957 1657.519897,2660.541504 
	C1708.174683,2703.721191 1763.435913,2739.940918 1822.939941,2769.632324 
	C1848.530273,2782.401367 1874.561157,2794.295166 1900.492188,2806.371582 
	C1926.018433,2818.259521 1953.393799,2823.981201 1980.729614,2829.688232 
	C2019.737061,2837.831787 2059.014648,2844.155762 2098.661133,2848.519043 
	C2134.082520,2852.417236 2169.540283,2854.905762 2205.107422,2853.470947 
	C2228.947266,2852.509033 2252.828125,2850.474365 2276.474121,2847.303711 
	C2308.027832,2843.072754 2339.487061,2837.888428 2370.775879,2831.994385 
	C2409.982422,2824.609131 2448.524414,2814.373779 2486.577881,2802.308838 
	C2517.657471,2792.454834 2548.810791,2782.624023 2578.213379,2768.504150 
	C2605.459473,2755.419678 2632.344238,2741.406982 2658.485107,2726.245605 
	C2685.223145,2710.737793 2711.077148,2693.662109 2736.933594,2676.687256 
	C2772.855225,2653.104980 2806.270020,2626.224854 2838.048340,2597.336914 
	C2854.292725,2582.569580 2870.842041,2568.040527 2886.024414,2552.223877 
	C2913.185791,2523.928223 2939.990479,2495.292480 2964.035156,2464.147949 
	C2984.403076,2437.765869 3003.769531,2410.723389 3020.365479,2381.878906 
	C3033.945557,2358.274902 3046.949951,2334.231934 3056.246338,2308.488281 
	C3063.912842,2287.257568 3071.252197,2265.907471 3078.583984,2244.557861 
	C3079.535889,2241.785889 3079.572754,2238.699707 3080.579834,2234.918213 
	C3081.126221,2234.077393 3082.000000,2234.000000 3082.000000,2234.000000 
	C3082.000000,2516.619873 3082.000000,2799.239990 3082.000000,3081.929932 
	C2055.549805,3081.929932 1029.099609,3081.929932 2.000000,3081.929932 
	C2.000000,2633.291748 2.000000,2184.583252 2.551601,1734.949951 
	C3.466809,1733.969849 3.830416,1733.914185 4.194024,1733.858643 
z"/>
<path fill="#FFFFFF" opacity="1.000000" stroke="none" 
	d="
M1.999998,870.000000 
	C2.000000,580.720459 2.000000,291.440918 2.000000,2.080684 
	C1028.421997,2.080684 2054.843994,2.080684 3082.000000,2.080684 
	C3082.000000,177.388718 3082.000000,352.778473 3081.601074,528.963013 
	C3081.201904,529.757751 3080.370850,529.830017 3080.232422,529.002197 
	C3079.818604,525.196533 3079.911865,522.128967 3079.212158,519.254272 
	C3068.782471,476.401703 3044.132080,444.513672 3005.131592,423.856293 
	C2982.748779,412.000580 2958.768555,408.818817 2933.644287,409.428497 
	C2911.712158,409.960724 2891.395996,415.471985 2872.790527,426.215149 
	C2832.714111,449.355927 2808.130371,483.631439 2801.403564,529.996521 
	C2800.696045,534.873291 2799.652832,539.800598 2797.981934,544.421204 
	C2790.840576,564.171265 2781.871582,583.117188 2770.750000,600.919983 
	C2738.262451,652.924927 2698.038818,698.321472 2652.425537,739.160461 
	C2612.117432,775.249207 2568.327148,806.492798 2521.791016,833.899475 
	C2488.262451,853.645447 2453.763184,871.567871 2417.958252,886.942688 
	C2400.226562,894.556885 2382.707764,902.717407 2363.588623,906.226013 
	C2331.292480,912.152649 2299.079346,918.818604 2266.563721,923.174255 
	C2239.320801,926.823547 2211.721924,928.598511 2184.229980,929.350891 
	C2164.065186,929.902771 2143.800537,927.703796 2123.611084,926.293213 
	C2082.145752,923.396179 2041.297974,916.245239 2000.705078,907.582214 
	C1988.384888,904.952942 1976.153320,902.097595 1965.088501,895.367798 
	C1940.648682,880.502991 1915.758057,866.374634 1891.424683,851.341431 
	C1874.739136,841.033142 1858.410767,830.088318 1842.434937,818.709045 
	C1830.811035,810.429504 1819.918335,801.103210 1808.894531,792.007324 
	C1798.904419,783.764404 1788.714722,775.680664 1779.423096,766.689575 
	C1752.615112,740.749023 1726.047974,714.552979 1699.756592,688.089417 
	C1691.603027,679.882568 1684.849609,670.303894 1677.069946,661.701599 
	C1666.807617,650.353821 1656.169067,639.346008 1645.686035,628.197754 
	C1619.024658,599.843811 1592.340942,571.510864 1565.708130,543.130310 
	C1557.971924,534.886414 1550.400757,526.487915 1542.711792,518.199524 
	C1533.664307,508.446533 1525.028076,498.255219 1515.404297,489.105011 
	C1493.717651,468.485657 1471.451782,448.477112 1449.590576,428.039154 
	C1441.095703,420.097198 1433.595337,411.022644 1424.699829,403.591858 
	C1404.810547,386.977753 1384.738037,370.525452 1363.985474,355.016968 
	C1338.330566,335.844940 1310.997925,319.248230 1280.725464,308.219330 
	C1257.307617,299.687714 1233.754883,291.498901 1210.088745,283.682617 
	C1172.504028,271.269379 1134.183105,261.444183 1095.316284,254.101517 
	C1063.709106,248.130356 1031.955811,242.567413 1000.039673,238.706238 
	C971.419495,235.243774 942.514221,233.789307 913.687988,232.472305 
	C882.764954,231.059479 851.913147,233.662720 821.290771,237.811157 
	C787.442688,242.396561 753.585144,247.192963 719.994812,253.336151 
	C665.973633,263.215851 613.299500,278.403320 561.474121,296.536591 
	C534.138855,306.100983 506.962128,316.286652 481.589935,330.219147 
	C448.376495,348.457550 415.632477,367.609497 383.278717,387.339539 
	C345.475891,410.392609 309.773407,436.541443 275.854889,465.013611 
	C242.965240,492.622131 211.689468,522.018799 182.300064,553.326477 
	C166.154709,570.525696 150.389862,588.149963 135.472458,606.414795 
	C120.557007,624.677246 106.498528,643.682739 92.809685,662.893555 
	C73.851540,689.499329 57.792053,717.934448 43.794399,747.402283 
	C34.683868,766.581665 26.492575,786.295288 19.394175,806.303406 
	C13.209662,823.735474 5.963189,841.083557 5.483210,860.141113 
	C5.399758,863.454590 3.214484,866.715027 1.999998,870.000000 
z"/>
<path fill="#0B6BCB" opacity="1.000000" stroke="none" 
	d="
M1.999998,870.937073 
	C3.214484,866.715027 5.399758,863.454590 5.483210,860.141113 
	C5.963189,841.083557 13.209662,823.735474 19.394175,806.303406 
	C26.492575,786.295288 34.683868,766.581665 43.794399,747.402283 
	C57.792053,717.934448 73.851540,689.499329 92.809685,662.893555 
	C106.498528,643.682739 120.557007,624.677246 135.472458,606.414795 
	C150.389862,588.149963 166.154709,570.525696 182.300064,553.326477 
	C211.689468,522.018799 242.965240,492.622131 275.854889,465.013611 
	C309.773407,436.541443 345.475891,410.392609 383.278717,387.339539 
	C415.632477,367.609497 448.376495,348.457550 481.589935,330.219147 
	C506.962128,316.286652 534.138855,306.100983 561.474121,296.536591 
	C613.299500,278.403320 665.973633,263.215851 719.994812,253.336151 
	C753.585144,247.192963 787.442688,242.396561 821.290771,237.811157 
	C851.913147,233.662720 882.764954,231.059479 913.687988,232.472305 
	C942.514221,233.789307 971.419495,235.243774 1000.039673,238.706238 
	C1031.955811,242.567413 1063.709106,248.130356 1095.316284,254.101517 
	C1134.183105,261.444183 1172.504028,271.269379 1210.088745,283.682617 
	C1233.754883,291.498901 1257.307617,299.687714 1280.725464,308.219330 
	C1310.997925,319.248230 1338.330566,335.844940 1363.985474,355.016968 
	C1384.738037,370.525452 1404.810547,386.977753 1424.699829,403.591858 
	C1433.595337,411.022644 1441.095703,420.097198 1449.590576,428.039154 
	C1471.451782,448.477112 1493.717651,468.485657 1515.404297,489.105011 
	C1525.028076,498.255219 1533.664307,508.446533 1542.711792,518.199524 
	C1550.400757,526.487915 1557.971924,534.886414 1565.708130,543.130310 
	C1592.340942,571.510864 1619.024658,599.843811 1645.686035,628.197754 
	C1656.169067,639.346008 1666.807617,650.353821 1677.069946,661.701599 
	C1684.849609,670.303894 1691.603027,679.882568 1699.756592,688.089417 
	C1726.047974,714.552979 1752.615112,740.749023 1779.423096,766.689575 
	C1788.714722,775.680664 1798.904419,783.764404 1808.894531,792.007324 
	C1819.918335,801.103210 1830.811035,810.429504 1842.434937,818.709045 
	C1858.410767,830.088318 1874.739136,841.033142 1891.424683,851.341431 
	C1915.758057,866.374634 1940.648682,880.502991 1965.088501,895.367798 
	C1976.153320,902.097595 1988.384888,904.952942 2000.705078,907.582214 
	C2041.297974,916.245239 2082.145752,923.396179 2123.611084,926.293213 
	C2143.800537,927.703796 2164.065186,929.902771 2184.229980,929.350891 
	C2211.721924,928.598511 2239.320801,926.823547 2266.563721,923.174255 
	C2299.079346,918.818604 2331.292480,912.152649 2363.588623,906.226013 
	C2382.707764,902.717407 2400.226562,894.556885 2417.958252,886.942688 
	C2453.763184,871.567871 2488.262451,853.645447 2521.791016,833.899475 
	C2568.327148,806.492798 2612.117432,775.249207 2652.425537,739.160461 
	C2698.038818,698.321472 2738.262451,652.924927 2770.750000,600.919983 
	C2781.871582,583.117188 2790.840576,564.171265 2797.981934,544.421204 
	C2799.652832,539.800598 2800.696045,534.873291 2801.403564,529.996521 
	C2808.130371,483.631439 2832.714111,449.355927 2872.790527,426.215149 
	C2891.395996,415.471985 2911.712158,409.960724 2933.644287,409.428497 
	C2958.768555,408.818817 2982.748779,412.000580 3005.131592,423.856293 
	C3044.132080,444.513672 3068.782471,476.401703 3079.212158,519.254272 
	C3079.911865,522.128967 3079.818604,525.196533 3080.089600,529.941162 
	C3080.180176,544.528442 3080.274902,557.348877 3080.229004,571.058716 
	C3080.285645,587.093262 3077.380127,601.676880 3072.165283,615.846558 
	C3066.201416,632.051636 3060.260498,648.265015 3054.294922,664.469482 
	C3044.838623,690.155823 3031.963379,714.244812 3018.383057,737.846680 
	C3001.787354,766.689148 2982.593506,793.858887 2962.008789,820.079102 
	C2935.680420,853.615356 2906.971191,884.908630 2876.711670,914.899475 
	C2851.400391,939.986023 2825.532471,964.437988 2797.232910,986.104858 
	C2771.905029,1005.496582 2746.517334,1024.909912 2720.102783,1042.754028 
	C2695.602051,1059.305176 2669.816895,1073.975586 2644.401367,1089.146484 
	C2609.487305,1109.987183 2573.149170,1127.908569 2534.710938,1141.393066 
	C2524.432617,1144.998901 2514.202637,1148.742310 2503.677979,1152.520508 
	C2503.677979,1157.173706 2503.677979,1161.148560 2503.677979,1165.123413 
	C2503.677979,1272.113159 2503.727295,1379.103027 2503.573242,1486.092529 
	C2503.562256,1493.672241 2502.859131,1501.440063 2501.117432,1508.798462 
	C2486.751465,1569.502319 2429.081787,1604.663208 2373.081055,1596.548340 
	C2320.740967,1588.963989 2275.886719,1544.749512 2274.394043,1483.265625 
	C2273.937500,1464.464233 2274.322510,1445.642212 2274.322510,1426.829712 
	C2274.322266,1355.537720 2274.328369,1284.245850 2274.299316,1212.953857 
	C2274.298096,1210.061890 2273.965576,1207.170166 2273.774902,1204.073486 
	C2271.134277,1204.073486 2269.182129,1203.926758 2267.257568,1204.095947 
	C2246.445312,1205.926514 2225.660400,1208.969727 2204.822510,1209.381470 
	C2178.248779,1209.906860 2151.549805,1209.404175 2125.054932,1207.380005 
	C2086.361084,1204.424194 2047.855713,1199.272217 2009.722900,1191.833862 
	C1977.454956,1185.539673 1944.764893,1180.516235 1913.989014,1168.538330 
	C1871.782471,1152.111572 1831.256592,1131.927002 1791.550537,1110.175293 
	C1740.011597,1081.941162 1691.684326,1048.928223 1647.854492,1009.757080 
	C1626.546997,990.714417 1606.506226,970.214661 1586.454956,949.821167 
	C1574.113770,937.269409 1563.598511,922.869568 1550.865356,910.770691 
	C1538.006714,898.552185 1526.985840,884.935425 1515.720215,871.417786 
	C1479.521240,827.982239 1442.996094,784.844666 1403.224609,744.562378 
	C1390.610840,731.786621 1378.963745,718.060669 1366.483276,705.147461 
	C1357.081543,695.419678 1347.056152,686.294556 1336.885498,676.493713 
	C1335.820557,678.694214 1334.758667,679.869263 1334.759399,681.043640 
	C1334.767212,693.569824 1334.997437,706.095703 1335.063721,718.622192 
	C1335.290649,761.524353 1335.561646,804.426697 1335.606079,847.329102 
	C1335.614990,855.938293 1335.291992,864.630676 1334.104126,873.142639 
	C1330.533081,898.736206 1319.111206,920.730103 1300.599121,938.499817 
	C1277.751953,960.430664 1250.186035,970.595032 1218.228516,970.487915 
	C1160.556396,970.294556 1106.837158,922.032654 1106.423706,857.992310 
	C1105.975952,788.668579 1106.337036,719.339661 1106.305664,650.013000 
	C1106.301147,640.044739 1106.032227,630.076904 1105.960815,620.108337 
	C1105.860840,606.171387 1105.810791,592.233948 1105.778442,578.296631 
	C1105.749268,565.727234 1105.772339,553.157776 1105.772339,540.033020 
	C1100.432129,538.539307 1095.734131,536.848083 1090.889526,535.932739 
	C1063.504028,530.758606 1036.213135,524.845398 1008.638672,520.976440 
	C980.418945,517.017029 951.959717,514.219543 923.509460,512.636719 
	C903.992676,511.550934 884.263794,512.723816 864.714783,514.097656 
	C824.965576,516.890991 785.548096,522.530579 746.451843,530.256470 
	C734.497070,532.618835 722.648743,535.520447 710.321472,538.271179 
	C710.321472,542.888977 710.321533,546.519653 710.321533,550.150330 
	C710.321533,608.144775 710.339783,666.139221 710.289062,724.133667 
	C710.284729,729.119446 710.326965,734.190308 709.497559,739.077454 
	C698.371948,804.632019 638.031677,844.192871 577.874878,834.254028 
	C522.380676,825.085693 481.787598,777.564636 481.672607,721.166626 
	C481.635223,702.838196 481.528870,684.509827 481.550110,665.531006 
	C480.323944,665.175903 479.001740,665.471313 477.054993,666.013672 
	C453.337555,686.278748 429.756775,705.769470 407.333466,726.511414 
	C393.707153,739.116089 381.593628,753.410950 369.281982,767.371094 
	C340.590424,799.904297 314.655121,834.408142 296.760712,874.243225 
	C291.894379,885.076233 286.064301,896.249573 284.681091,907.748352 
	C275.749268,981.998901 209.758224,1045.604736 119.893608,1031.026611 
	C62.863674,1021.775085 25.550062,986.300598 8.060269,930.794250 
	C6.082134,924.516296 4.022091,918.264099 2.000002,912.000000 
	C2.000000,898.624695 2.000000,885.249451 1.999998,870.937073 
z"/>
<path fill="#FFFFFF" opacity="1.000000" stroke="none" 
	d="
M2.000002,912.937317 
	C4.022091,918.264099 6.082134,924.516296 8.060269,930.794250 
	C25.550062,986.300598 62.863674,1021.775085 119.893608,1031.026611 
	C209.758224,1045.604736 275.749268,981.998901 284.681091,907.748352 
	C286.064301,896.249573 291.894379,885.076233 296.760712,874.243225 
	C314.655121,834.408142 340.590424,799.904297 369.281982,767.371094 
	C381.593628,753.410950 393.707153,739.116089 407.333466,726.511414 
	C429.756775,705.769470 453.337555,686.278748 477.680786,666.119385 
	C479.772125,666.045898 480.613098,666.113647 481.454102,666.181458 
	C481.528870,684.509827 481.635223,702.838196 481.672607,721.166626 
	C481.787598,777.564636 522.380676,825.085693 577.874878,834.254028 
	C638.031677,844.192871 698.371948,804.632019 709.497559,739.077454 
	C710.326965,734.190308 710.284729,729.119446 710.289062,724.133667 
	C710.339783,666.139221 710.321533,608.144775 710.321533,550.150330 
	C710.321533,546.519653 710.321472,542.888977 710.321472,538.271179 
	C722.648743,535.520447 734.497070,532.618835 746.451843,530.256470 
	C785.548096,522.530579 824.965576,516.890991 864.714783,514.097656 
	C884.263794,512.723816 903.992676,511.550934 923.509460,512.636719 
	C951.959717,514.219543 980.418945,517.017029 1008.638672,520.976440 
	C1036.213135,524.845398 1063.504028,530.758606 1090.889526,535.932739 
	C1095.734131,536.848083 1100.432129,538.539307 1105.772339,540.033020 
	C1105.772339,553.157776 1105.749268,565.727234 1105.778442,578.296631 
	C1105.810791,592.233948 1105.860840,606.171387 1105.960815,620.108337 
	C1106.032227,630.076904 1106.301147,640.044739 1106.305664,650.013000 
	C1106.337036,719.339661 1105.975952,788.668579 1106.423706,857.992310 
	C1106.837158,922.032654 1160.556396,970.294556 1218.228516,970.487915 
	C1250.186035,970.595032 1277.751953,960.430664 1300.599121,938.499817 
	C1319.111206,920.730103 1330.533081,898.736206 1334.104126,873.142639 
	C1335.291992,864.630676 1335.614990,855.938293 1335.606079,847.329102 
	C1335.561646,804.426697 1335.290649,761.524353 1335.063721,718.622192 
	C1334.997437,706.095703 1334.767212,693.569824 1334.759399,681.043640 
	C1334.758667,679.869263 1335.820557,678.694214 1336.885498,676.493713 
	C1347.056152,686.294556 1357.081543,695.419678 1366.483276,705.147461 
	C1378.963745,718.060669 1390.610840,731.786621 1403.224609,744.562378 
	C1442.996094,784.844666 1479.521240,827.982239 1515.720215,871.417786 
	C1526.985840,884.935425 1538.006714,898.552185 1550.865356,910.770691 
	C1563.598511,922.869568 1574.113770,937.269409 1586.454956,949.821167 
	C1606.506226,970.214661 1626.546997,990.714417 1647.854492,1009.757080 
	C1691.684326,1048.928223 1740.011597,1081.941162 1791.550537,1110.175293 
	C1831.256592,1131.927002 1871.782471,1152.111572 1913.989014,1168.538330 
	C1944.764893,1180.516235 1977.454956,1185.539673 2009.722900,1191.833862 
	C2047.855713,1199.272217 2086.361084,1204.424194 2125.054932,1207.380005 
	C2151.549805,1209.404175 2178.248779,1209.906860 2204.822510,1209.381470 
	C2225.660400,1208.969727 2246.445312,1205.926514 2267.257568,1204.095947 
	C2269.182129,1203.926758 2271.134277,1204.073486 2273.774902,1204.073486 
	C2273.965576,1207.170166 2274.298096,1210.061890 2274.299316,1212.953857 
	C2274.328369,1284.245850 2274.322266,1355.537720 2274.322510,1426.829712 
	C2274.322510,1445.642212 2273.937500,1464.464233 2274.394043,1483.265625 
	C2275.886719,1544.749512 2320.740967,1588.963989 2373.081055,1596.548340 
	C2429.081787,1604.663208 2486.751465,1569.502319 2501.117432,1508.798462 
	C2502.859131,1501.440063 2503.562256,1493.672241 2503.573242,1486.092529 
	C2503.727295,1379.103027 2503.677979,1272.113159 2503.677979,1165.123413 
	C2503.677979,1161.148560 2503.677979,1157.173706 2503.677979,1152.520508 
	C2514.202637,1148.742310 2524.432617,1144.998901 2534.710938,1141.393066 
	C2573.149170,1127.908569 2609.487305,1109.987183 2644.401367,1089.146484 
	C2669.816895,1073.975586 2695.602051,1059.305176 2720.102783,1042.754028 
	C2746.517334,1024.909912 2771.905029,1005.496582 2797.232910,986.104858 
	C2825.532471,964.437988 2851.400391,939.986023 2876.711670,914.899475 
	C2906.971191,884.908630 2935.680420,853.615356 2962.008789,820.079102 
	C2982.593506,793.858887 3001.787354,766.689148 3018.383057,737.846680 
	C3031.963379,714.244812 3044.838623,690.155823 3054.294922,664.469482 
	C3060.260498,648.265015 3066.201416,632.051636 3072.165283,615.846558 
	C3077.380127,601.676880 3080.285645,587.093262 3080.644531,571.093018 
	C3081.200928,570.237854 3082.000000,570.000000 3082.000000,570.000000 
	C3082.000000,830.041809 3082.000000,1090.083618 3082.000000,1351.062744 
	C3080.617188,1345.564209 3079.760498,1338.960693 3077.769043,1332.719116 
	C3060.092773,1277.320679 3022.690430,1241.869385 2965.547607,1232.902954 
	C2880.486328,1219.555664 2815.832520,1274.937866 2802.875488,1348.043091 
	C2797.970215,1375.718994 2785.352783,1399.474731 2771.659424,1422.878174 
	C2751.418945,1457.470703 2725.305176,1487.682251 2698.386963,1517.274170 
	C2669.364258,1549.179443 2636.837402,1577.091431 2602.419434,1602.744873 
	C2580.042969,1619.423340 2556.836670,1635.206177 2532.850342,1649.450928 
	C2504.006592,1666.580200 2474.162109,1682.080200 2444.348633,1697.508667 
	C2403.577148,1718.608032 2360.287354,1732.210815 2314.727783,1738.227173 
	C2283.829346,1742.307373 2252.949951,1746.721680 2221.937744,1749.683960 
	C2202.125732,1751.576538 2182.016357,1752.411987 2162.166016,1751.358276 
	C2134.041992,1749.865112 2105.903076,1747.120483 2078.012695,1743.191650 
	C2050.442139,1739.307983 2023.158813,1733.359375 1995.777344,1728.169678 
	C1984.953369,1726.118164 1974.694458,1722.584717 1965.172974,1716.723755 
	C1952.712769,1709.053711 1939.979004,1701.811401 1927.172485,1694.729248 
	C1922.268066,1692.016968 1920.127075,1688.848145 1920.175659,1682.944092 
	C1920.468384,1647.339478 1920.385498,1611.731079 1920.293945,1576.124268 
	C1920.238403,1554.548218 1919.806885,1532.972900 1919.790405,1511.397095 
	C1919.774048,1490.160767 1920.265137,1468.923462 1920.169312,1447.688110 
	C1920.078125,1427.463379 1920.934082,1407.052368 1913.028809,1387.756226 
	C1895.378906,1344.675049 1863.897461,1319.315063 1817.315430,1313.684814 
	C1758.463013,1306.571655 1702.964722,1347.514038 1692.619751,1407.904663 
	C1691.088745,1416.842163 1689.492310,1425.957275 1691.195190,1435.550049 
	C1692.648193,1443.735474 1690.663574,1452.488159 1690.637085,1460.991211 
	C1690.609497,1469.817505 1691.195190,1478.644043 1691.331909,1487.473389 
	C1691.385010,1490.913818 1690.944214,1494.362183 1690.694702,1498.345215 
	C1680.286743,1486.823975 1670.836426,1476.245605 1661.255737,1465.786621 
	C1648.900879,1452.299561 1636.472778,1438.879028 1624.021118,1425.481201 
	C1593.449951,1392.586914 1563.105713,1359.475952 1532.137695,1326.959229 
	C1518.613647,1312.758789 1503.768677,1299.818115 1489.555908,1286.271240 
	C1469.347656,1267.010010 1449.627441,1247.205566 1428.837646,1228.595215 
	C1411.273315,1212.872070 1392.853149,1198.036011 1374.140137,1183.682983 
	C1352.202881,1166.857056 1329.484619,1150.794800 1303.915161,1140.018066 
	C1276.988525,1128.669312 1249.567871,1118.330444 1221.873169,1109.004517 
	C1179.332886,1094.679443 1135.925293,1083.160156 1091.725708,1075.244141 
	C1058.106079,1069.222900 1024.251099,1064.426270 990.404724,1059.785889 
	C957.116882,1055.222046 923.574463,1052.917114 889.995911,1054.511353 
	C863.177063,1055.784790 836.320312,1057.814331 809.694519,1061.195190 
	C778.774902,1065.121216 748.090820,1070.899292 717.296509,1075.823730 
	C715.726807,1076.074707 714.081970,1075.856079 711.671631,1075.856079 
	C711.671631,1067.173462 711.746948,1058.703613 711.659485,1050.235229 
	C711.056763,991.861023 672.097290,946.675781 619.925720,936.152100 
	C580.612000,928.222168 545.775024,938.418396 516.946594,965.946350 
	C494.676483,987.211853 482.611603,1013.928528 482.376953,1045.168701 
	C482.131592,1077.830444 482.085571,1110.498413 482.507782,1143.156494 
	C482.599854,1150.279785 479.934540,1153.548584 474.016693,1156.937134 
	C441.987457,1175.277222 409.672424,1193.231323 378.631226,1213.150146 
	C350.403168,1231.263794 322.933319,1250.766724 296.509033,1271.422485 
	C272.190430,1290.432129 248.894104,1310.944458 226.635147,1332.342529 
	C201.724991,1356.289185 178.112717,1381.629028 154.629944,1407.005127 
	C131.791885,1431.684448 111.454369,1458.499268 92.793060,1486.429199 
	C79.876289,1505.761597 68.285347,1526.013428 56.730789,1546.214111 
	C41.838028,1572.250854 30.625956,1600.032959 20.325760,1628.120728 
	C12.662733,1649.016968 5.709904,1670.224854 4.167242,1693.419678 
	C2.735670,1693.983765 2.367835,1693.991821 2.000000,1694.000000 
	C2.000000,1433.958252 2.000000,1173.916382 2.000002,912.937317 
z"/>
<path fill="#FFFFFF" opacity="1.000000" stroke="none" 
	d="
M3082.000000,2167.062744 
	C3079.307861,2158.811035 3077.520020,2149.234131 3073.773193,2140.497070 
	C3053.353027,2092.880615 3017.543213,2062.501953 2966.466797,2054.801025 
	C2883.918701,2042.355347 2819.688965,2093.514160 2805.307617,2164.314697 
	C2797.303711,2203.719482 2778.887451,2237.125977 2756.832764,2269.199707 
	C2730.922119,2306.881104 2700.560059,2341.047607 2667.031006,2372.011475 
	C2629.121826,2407.020508 2588.646240,2439.018311 2543.970947,2465.229492 
	C2519.025391,2479.864990 2494.256348,2494.922852 2468.531006,2508.075439 
	C2439.272461,2523.034912 2409.906006,2538.529053 2377.941895,2546.838135 
	C2350.693115,2553.921875 2322.838623,2558.968750 2295.018311,2563.472900 
	C2270.817383,2567.391113 2246.339600,2569.921631 2221.889404,2571.880127 
	C2202.697266,2573.417236 2183.301025,2574.333252 2164.101807,2573.382568 
	C2138.965576,2572.137939 2113.805420,2569.680420 2088.889893,2566.109619 
	C2058.040527,2561.688232 2027.414551,2555.685791 1996.727417,2550.168945 
	C1985.201904,2548.096924 1974.501831,2543.857666 1964.418213,2537.658203 
	C1950.559814,2529.138184 1936.267456,2521.324463 1922.337280,2513.309570 
	C1922.064453,2511.376953 1921.721924,2510.076904 1921.720337,2508.776123 
	C1921.682861,2477.194336 1921.785767,2445.612061 1921.630493,2414.031006 
	C1921.552612,2398.219482 1920.851685,2382.411133 1920.752808,2366.599365 
	C1920.699585,2358.098145 1921.592651,2349.591553 1921.570312,2341.088867 
	C1921.545288,2331.584473 1920.904175,2322.083252 1920.649536,2312.577637 
	C1920.447266,2305.031250 1920.800171,2297.453125 1920.259766,2289.935547 
	C1916.479004,2237.337158 1870.684937,2191.988525 1818.341187,2187.520264 
	C1782.610840,2184.470459 1751.928467,2195.169922 1726.426514,2219.526123 
	C1705.765015,2239.259521 1694.403442,2264.157959 1692.374268,2292.918701 
	C1692.001709,2298.199463 1692.387817,2303.530273 1692.288452,2308.835449 
	C1692.222900,2312.338867 1691.915283,2315.837646 1691.584717,2321.645264 
	C1685.851074,2314.471191 1681.895508,2308.978760 1677.386719,2303.985840 
	C1665.352783,2290.658936 1653.176880,2277.456787 1640.884155,2264.367920 
	C1613.777954,2235.506592 1586.519653,2206.787598 1559.416382,2177.923340 
	C1547.124756,2164.833496 1535.626953,2150.944580 1522.751099,2138.468750 
	C1502.697632,2119.038818 1481.664551,2100.623779 1461.270020,2081.539795 
	C1451.073608,2071.998779 1441.694458,2061.574463 1431.364624,2052.188965 
	C1418.336914,2040.352417 1405.144775,2028.615479 1391.243042,2017.843018 
	C1373.630615,2004.195679 1355.233276,1991.561279 1336.692749,1978.141235 
	C1336.692749,1819.321045 1336.692749,1659.853516 1336.692749,1499.477661 
	C1341.859619,1501.156616 1344.218994,1504.885986 1347.132568,1507.734497 
	C1355.906738,1516.312256 1364.644775,1524.934692 1373.156860,1533.770996 
	C1383.542358,1544.552002 1393.437134,1555.812500 1403.974243,1566.439087 
	C1447.353027,1610.188599 1486.804565,1657.380981 1526.078857,1704.750366 
	C1533.689575,1713.929932 1542.379761,1722.208374 1550.432617,1731.029785 
	C1559.175537,1740.607300 1567.811035,1750.284546 1576.395874,1760.004272 
	C1604.212158,1791.497437 1634.451172,1820.476440 1666.825073,1847.238403 
	C1672.461304,1851.897583 1678.052734,1856.671265 1684.086060,1860.772461 
	C1689.863892,1864.700195 1691.928345,1869.362549 1691.860229,1876.494019 
	C1691.481079,1916.151733 1691.654663,1955.814819 1691.683716,1995.476074 
	C1691.734009,2064.087158 1750.211304,2116.836914 1818.402710,2109.679688 
	C1875.053467,2103.734131 1920.200195,2055.231445 1920.342773,1998.821533 
	C1920.346069,1997.506836 1920.527222,1996.192749 1920.694214,1993.959229 
	C2037.120361,2022.382446 2154.060791,2042.396362 2274.879395,2025.104126 
	C2275.212158,2028.716064 2275.646484,2031.242554 2275.648193,2033.769165 
	C2275.688232,2095.423340 2275.682617,2157.077637 2275.684082,2218.731689 
	C2275.684570,2239.007080 2275.338135,2259.289551 2275.743164,2279.556885 
	C2277.093018,2347.101807 2332.898926,2392.307861 2389.489014,2392.580078 
	C2438.041504,2392.813477 2491.147217,2360.394043 2503.301514,2298.206055 
	C2504.312988,2293.030762 2504.278809,2287.599121 2504.281738,2282.286377 
	C2504.335938,2183.633057 2504.321533,2084.979980 2504.321533,1986.326660 
	C2504.321533,1982.679932 2504.321533,1979.033203 2504.321533,1974.661865 
	C2516.053711,1970.432983 2527.557861,1966.305664 2539.048340,1962.140625 
	C2569.442383,1951.123535 2598.907471,1938.037598 2626.772217,1921.603394 
	C2658.277100,1903.022339 2690.007568,1884.764038 2720.799805,1865.053101 
	C2747.942627,1847.678467 2773.805420,1828.392822 2798.883057,1808.005859 
	C2828.614990,1783.835327 2856.822266,1758.035400 2884.016357,1731.153442 
	C2901.265869,1714.101929 2917.422119,1695.909058 2933.552734,1677.769043 
	C2959.448242,1648.648071 2982.858643,1617.586914 3003.958008,1584.810669 
	C3024.164551,1553.421387 3041.877197,1520.712280 3055.601562,1485.940063 
	C3060.600098,1473.276001 3065.413574,1460.535767 3070.103271,1447.753906 
	C3076.546387,1430.193481 3081.004883,1412.202148 3081.525146,1392.669678 
	C3082.000000,1650.041870 3082.000000,1908.083618 3082.000000,2167.062744 
z"/>
<path fill="#AECEEE" opacity="1.000000" stroke="none" 
	d="
M3082.000000,569.063232 
	C3082.000000,570.000000 3081.200928,570.237854 3080.785400,570.203613 
	C3080.274902,557.348877 3080.180176,544.528442 3080.228027,530.768982 
	C3080.370850,529.830017 3081.201904,529.757751 3081.601074,529.878906 
	C3082.000000,542.708801 3082.000000,555.417603 3082.000000,569.063232 
z"/>
<path fill="#AECEEE" opacity="1.000000" stroke="none" 
	d="
M2.000000,1694.936768 
	C2.367835,1693.991821 2.735670,1693.983765 3.649087,1694.059204 
	C4.255897,1706.765991 4.317123,1719.389160 4.286186,1732.935547 
	C3.830416,1733.914185 3.466809,1733.969849 2.551601,1734.012695 
	C2.000000,1721.291138 2.000000,1708.582397 2.000000,1694.936768 
z"/>
<path fill="#AECEEE" opacity="1.000000" stroke="none" 
	d="
M3082.000000,2233.143066 
	C3082.000000,2234.000000 3081.126221,2234.077393 3080.688477,2234.097168 
	C3080.419434,2230.402100 3080.588379,2226.687256 3081.378662,2222.486084 
	C3082.000000,2225.428711 3082.000000,2228.857422 3082.000000,2233.143066 
z"/>
<path fill="#C1D9F2" opacity="1.000000" stroke="none" 
	d="
M481.550110,665.531006 
	C480.613098,666.113647 479.772125,666.045898 478.305359,665.872437 
	C479.001740,665.471313 480.323944,665.175903 481.550110,665.531006 
z"/>
</svg>